Coordinates
version=1
nRows=9
nColumns=24
inDegrees=yes

Units are S.I. units (second, meters, Newtons, ...)
Angles are in degrees.

endheader
time	pelvis_tilt	pelvis_list	pelvis_rotation	pelvis_tx	pelvis_ty	pelvis_tz	hip_flexion_r	hip_adduction_r	hip_rotation_r	knee_angle_r	ankle_angle_r	subtalar_angle_r	mtp_angle_r	hip_flexion_l	hip_adduction_l	hip_rotation_l	knee_angle_l	ankle_angle_l	subtalar_angle_l	mtp_angle_l	lumbar_extension	lumbar_bending	lumbar_rotation
      3.48500000	     -5.83304751	     -2.41153395	     -5.73249889	     -1.04810432	     -0.03941971	     -0.10908479	     -7.55657580	      6.63735574	      8.83573198	    -26.46972685	      6.22859124	     16.13548622	     18.54136813	     36.60682717	     -2.16330178	    -15.76217955	    -14.47261134	      8.58017292	     13.21921584	    -17.39543998	      5.07566698	      1.87684235	      7.06912601
      3.49000000	     -5.90573198	     -2.05730460	     -5.84473728	     -1.04039767	     -0.03995133	     -0.10962666	     -7.35962589	      6.08648328	      8.52778848	    -27.48764351	      5.29134692	     16.91069898	     19.18434758	     36.55127306	     -1.88779167	    -16.21594471	    -15.03263021	      7.74358808	     12.15300965	    -17.52457403	      5.33515156	      1.47408430	      7.08380093
      3.49500000	     -5.91780926	     -1.69124660	     -5.81475127	     -1.03263918	     -0.04037459	     -0.11048329	     -7.19600869	      5.47221110	      7.89174477	    -28.43555358	      3.96533303	     17.58121287	     20.66986649	     36.38818843	     -1.43862793	    -16.19452706	    -15.43548174	      6.54836057	     10.66625414	    -17.36293145	      5.52958071	      1.04883185	      6.95531706
      3.50000000	     -5.93179779	     -1.26761742	     -5.85572091	     -1.02476164	     -0.04063724	     -0.11116311	     -7.03674183	      4.81726828	      7.54581277	    -29.27148643	      2.21423113	     17.89492826	     22.92851705	     36.20459866	     -0.99825060	    -16.43422493	    -15.77645035	      5.04806409	      9.26562615	    -16.32864300	      5.75500219	      0.55353178	      6.87560644
      3.50500000	     -6.05884246	     -0.78036736	     -5.86549275	     -1.01696206	     -0.04105932	     -0.11201070	     -6.60125305	      4.04931157	      6.97344875	    -30.46214854	      0.96135981	     19.01093475	     23.84609498	     36.21646587	     -0.48691639	    -16.64927732	    -16.26766950	      3.81914037	      8.07956643	    -16.38772308	      6.08927776	      0.01567458	      6.75575747
      3.51000000	     -6.09592376	     -0.28529879	     -5.71069733	     -1.00901357	     -0.04124483	     -0.11304594	     -6.31169200	      3.26150191	      6.25391112	    -31.41878051	     -0.98243948	     19.59467611	     25.84041237	     36.07925039	      0.19917413	    -16.36195108	    -16.60788056	      2.27186465	      6.60527709	    -16.16611277	      6.34781735	     -0.56481935	      6.52433077
      3.51500000	     -6.20890656	      0.24964624	     -5.65264564	     -1.00116615	     -0.04146287	     -0.11397825	     -5.83287723	      2.41853748	      5.67602717	    -32.52375318	     -2.91396671	     20.37382252	     27.70472108	     36.07433144	      0.83246213	    -16.28113061	    -17.06415035	      0.86610984	      5.41621158	    -16.08754671	      6.66996916	     -1.16675407	      6.37641499
      3.52000000	     -6.31885629	      0.80544765	     -5.57139031	     -0.99331573	     -0.04163739	     -0.11490972	     -5.31080235	      1.54880184	      5.11721240	    -33.66741185	     -5.01385977	     21.11180333	     29.50222355	     36.09138276	      1.50256284	    -16.12064169	    -17.58290430	     -0.42693120	      4.34609144	    -16.22398984	      6.98884553	     -1.79946347	      6.20831422
      3.52500000	     -6.47952443	      1.37593943	     -5.53405064	     -0.98559634	     -0.04186672	     -0.11581829	     -4.62868986	      0.65194810	      4.63891410	    -34.98311795	     -7.02122894	     22.07537249	     30.75430557	     36.20942543	      2.15161796	    -15.98199559	    -18.19921481	     -1.56117279	      3.41253846	    -16.60622477	      7.33908709	     -2.42421553	      6.13764122
